<svg width="87" height="93" viewBox="0 0 87 93" version="1.1" xmlns="http://www.w3.org/2000/svg" xmlns:xlink="http://www.w3.org/1999/xlink">
<g id="Canvas" fill="none">
<g id="icons8-&#208;&#186;&#208;&#190;&#208;&#189;&#209;&#130;&#208;&#176;&#208;&#186;&#209;&#130;&#209;&#139;" opacity="0.5">
<g id="surface1">
<g id="Vector">
<path d="M 43.0517 0C 32.9214 0.227743 26.5109 4.3271 23.7527 10.6617C 21.1294 16.6927 21.6777 24.2925 23.5502 32.1876C 22.5465 33.3685 21.7199 35.0301 21.9307 37.5184L 21.9307 37.6534C 22.2934 40.2851 23.0863 42.1407 24.0901 43.4566C 24.5709 44.0808 25.2541 44.1145 25.8445 44.4688C 26.3675 47.4126 27.5399 50.2214 28.8811 52.4313C 28.9486 52.7519 29.0835 53.0471 29.286 53.3086C 29.286 53.3086 29.5053 53.5869 29.5559 53.6459C 30.2307 54.6581 30.5681 56.0668 30.5681 57.6272C 30.5681 59.2889 30.5428 60.8325 30.3656 62.5532C 29.7161 64.1896 28.0966 65.497 25.5071 66.8044C 22.7995 68.1708 19.2569 69.4276 15.6552 70.9881C 12.0535 72.5486 8.40116 74.4211 5.46581 77.3986C 2.53047 80.3761 0.43018 84.5008 0.134958 89.8823L 0 92.1766L 86.6432 92.1766L 86.5083 89.8823C 86.2131 84.5008 84.1634 80.3846 81.2449 77.3986C 78.3264 74.4127 74.6573 72.5486 71.0556 70.9881C 67.4539 69.4276 63.8859 68.1793 61.1361 66.8044C 58.4707 65.4717 56.8006 64.1137 56.0752 62.4182C 55.9065 60.377 55.8727 58.7659 55.8727 56.9524C 55.8727 55.7968 56.2692 54.7509 56.9524 53.7134C 56.9693 53.6881 57.003 53.6713 57.0199 53.6459C 57.0283 53.6291 57.1549 53.511 57.1549 53.511C 57.4248 53.2326 57.6103 52.8784 57.6947 52.4988C 59.0021 50.2551 60.0902 47.4041 60.5963 44.5363C 61.2711 44.182 62.0302 44.1398 62.5532 43.4566C 63.5907 42.0986 64.198 40.167 64.4426 37.5184C 64.6366 35.2326 63.9787 33.5709 62.9581 32.3225C 64.0799 28.8642 65.4126 23.3309 64.9824 17.6795C 64.7463 14.5755 63.9281 11.4799 62.0808 8.90725C 60.4107 6.57922 57.7116 4.98502 54.3207 4.25119C 52.0349 1.19776 47.8849 0 43.1192 0L 43.0517 0ZM 43.1192 4.31867C 43.1445 4.31867 43.1614 4.31867 43.1867 4.31867C 47.4969 4.33554 50.2551 5.55016 51.1492 7.08531L 51.689 8.03002L 52.7687 8.16498C 55.7378 8.57829 57.3657 9.72544 58.5719 11.404C 59.7781 13.0825 60.4698 15.4274 60.6638 18.0169C 61.0602 23.2044 59.5588 29.286 58.5719 32.0526L 57.8971 33.8745L 59.5841 34.7518C 59.5672 34.8108 60.2758 35.5278 60.1914 37.1135C 60.1914 37.1473 60.1914 37.1473 60.1914 37.181C 59.989 39.2138 59.466 40.361 59.1117 40.8249C 58.749 41.2973 58.5635 41.2298 58.6394 41.2298L 56.75 41.2298L 56.4801 43.1192C 56.1089 45.9196 54.6834 49.4454 53.4435 51.2167L 53.376 51.2167C 53.2495 51.4023 53.1567 51.6216 53.0386 51.824C 52.4735 52.4819 51.6216 53.3507 50.4069 54.3882C 48.391 56.1089 45.7171 57.6272 43.3216 57.6272C 40.943 57.6272 38.2438 56.033 36.1688 54.2533C 34.3722 52.7097 33.301 51.3854 32.9973 51.0143C 32.9889 50.9974 33.0057 50.9636 32.9973 50.9468C 31.7236 49.108 30.2644 45.8858 29.8933 43.1192L 29.6908 41.2298L 27.9364 41.2298C 27.8605 41.196 27.658 41.0864 27.464 40.8249C 27.0844 40.3272 26.5446 39.1632 26.2494 37.181C 26.2494 37.1389 26.2494 37.1557 26.2494 37.1135C 26.241 37.0798 26.2578 37.0798 26.2494 37.0461C 26.2157 35.4097 27.2278 34.4987 27.0591 34.6168L 28.2738 33.7396L 27.9364 32.255C 25.9457 24.3853 25.6336 17.2578 27.7339 12.4162C 29.8342 7.59141 34.0854 4.53798 43.1192 4.31867ZM 34.8867 58.7744C 37.1642 60.4529 40.0151 61.9459 43.3216 61.9459C 46.5606 61.9459 49.3357 60.5288 51.5541 58.9093C 51.5625 60.2252 51.6047 61.5747 51.7565 63.228L 51.7565 63.4979L 51.8915 63.7678C 52.271 64.7631 52.8109 65.6066 53.4435 66.3995C 53.4182 66.4839 53.3929 66.5766 53.376 66.6694C 53.376 66.6694 52.8615 68.0865 51.3516 69.6385C 49.8418 71.1905 47.4969 72.7426 43.3216 72.7426C 39.1632 72.7426 36.734 71.1231 35.1566 69.5036C 33.5793 67.8841 33.0648 66.3995 33.0648 66.3995C 33.689 65.5898 34.2035 64.721 34.5493 63.7003L 34.6843 63.2955C 34.8699 61.6591 34.8867 60.183 34.8867 58.7744ZM 56.8175 69.3686C 57.5766 69.8578 58.361 70.3133 59.1792 70.7182C 62.3339 72.2871 65.9103 73.5017 69.3011 74.9694C 72.6919 76.437 75.855 78.0987 78.1409 80.4352C 79.9628 82.2993 81.0593 84.7792 81.6498 87.8579L 4.99346 87.8579C 5.5839 84.7792 6.672 82.2993 8.50237 80.4352C 10.7967 78.0987 14.0188 76.437 17.4096 74.9694C 20.8005 73.5017 24.3431 72.2955 27.464 70.7182C 28.24 70.3217 29.0329 69.9084 29.7583 69.4361C 30.2391 70.3049 30.9814 71.4351 32.0526 72.5401C 34.2541 74.8091 37.9823 77.0612 43.3216 77.0612C 48.644 77.0612 52.2964 74.8344 54.4557 72.6076C 55.6366 71.393 56.3535 70.2627 56.8175 69.3686Z" transform="translate(0.178406 0.216217)" fill="#29466E"/>
</g>
</g>
</g>
</g>
</svg>

